<?xml version="1.0" encoding="utf-8"?>
<svg version="1.1" xmlns:xlink="http://www.w3.org/1999/xlink" width="12px" height="12px" viewBox="2163 401  12 12" xmlns="http://www.w3.org/2000/svg">
  <path d="M 2169 401  C 2172.36 401  2175 403.64  2175 407  C 2175 410.36  2172.36 413  2169 413  C 2165.64 413  2163 410.36  2163 407  C 2163 403.64  2165.64 401  2169 401  Z " fill-rule="nonzero" fill="#ffffff" stroke="none" />
  <path d="M 2169 401.5  C 2172.08 401.5  2174.5 403.92  2174.5 407  C 2174.5 410.08  2172.08 412.5  2169 412.5  C 2165.92 412.5  2163.5 410.08  2163.5 407  C 2163.5 403.92  2165.92 401.5  2169 401.5  Z " stroke-width="1" stroke="#d7d7d7" fill="none" />
  <path d="M 2169 410  C 2167.32 410  2166 408.68  2166 407  C 2166 405.32  2167.32 404  2169 404  C 2170.68 404  2172 405.32  2172 407  C 2172 408.68  2170.68 410  2169 410  " fill-rule="nonzero" fill="#d7d7d7" stroke="none" />
</svg>