<?xml version="1.0" encoding="utf-8"?>
<svg version="1.1" xmlns:xlink="http://www.w3.org/1999/xlink" width="12px" height="12px" viewBox="2113 401  12 12" xmlns="http://www.w3.org/2000/svg">
  <path d="M 2119 401  C 2122.36 401  2125 403.64  2125 407  C 2125 410.36  2122.36 413  2119 413  C 2115.64 413  2113 410.36  2113 407  C 2113 403.64  2115.64 401  2119 401  Z " fill-rule="nonzero" fill="#ffffff" stroke="none" />
  <path d="M 2119 401.5  C 2122.08 401.5  2124.5 403.92  2124.5 407  C 2124.5 410.08  2122.08 412.5  2119 412.5  C 2115.92 412.5  2113.5 410.08  2113.5 407  C 2113.5 403.92  2115.92 401.5  2119 401.5  Z " stroke-width="1" stroke="#d7d7d7" fill="none" />
  <path d="M 2119 410  C 2117.32 410  2116 408.68  2116 407  C 2116 405.32  2117.32 404  2119 404  C 2120.68 404  2122 405.32  2122 407  C 2122 408.68  2120.68 410  2119 410  " fill-rule="nonzero" fill="#d7d7d7" stroke="none" />
</svg>