<?xml version="1.0" encoding="utf-8"?>
<svg version="1.1" xmlns:xlink="http://www.w3.org/1999/xlink" width="18px" height="20px" xmlns="http://www.w3.org/2000/svg">
  <g transform="matrix(1 0 0 1 -667 -1031 )">
    <path d="M 17.6420454545455 7.67045454545455  C 17.8806818181818 7.93560606060606  18 8.25757575757576  18 8.63636363636363  L 18 11.3636363636364  C 18 11.7424242424242  17.8806818181818 12.0643939393939  17.6420454545455 12.3295454545455  C 17.4034090909091 12.594696969697  17.1136363636364 12.7272727272727  16.7727272727273 12.7272727272727  L 11.4545454545455 12.7272727272727  L 11.4545454545455 18.6363636363636  C 11.4545454545455 19.0151515151515  11.3352272727273 19.3371212121212  11.0965909090909 19.6022727272727  C 10.8579545454545 19.8674242424242  10.5681818181818 20  10.2272727272727 20  L 7.77272727272727 20  C 7.43181818181818 20  7.14204545454546 19.8674242424242  6.90340909090909 19.6022727272727  C 6.66477272727273 19.3371212121212  6.54545454545455 19.0151515151515  6.54545454545455 18.6363636363636  L 6.54545454545455 12.7272727272727  L 1.22727272727273 12.7272727272727  C 0.886363636363636 12.7272727272727  0.596590909090909 12.594696969697  0.357954545454545 12.3295454545455  C 0.119318181818182 12.0643939393939  0 11.7424242424242  0 11.3636363636364  L 0 8.63636363636363  C 0 8.25757575757576  0.119318181818182 7.93560606060606  0.357954545454545 7.67045454545455  C 0.596590909090909 7.40530303030303  0.886363636363636 7.27272727272727  1.22727272727273 7.27272727272727  L 6.54545454545455 7.27272727272727  L 6.54545454545455 1.36363636363636  C 6.54545454545455 0.984848484848484  6.66477272727273 0.662878787878787  6.90340909090909 0.397727272727273  C 7.14204545454546 0.132575757575757  7.43181818181818 0  7.77272727272727 0  L 10.2272727272727 0  C 10.5681818181818 0  10.8579545454545 0.132575757575757  11.0965909090909 0.397727272727273  C 11.3352272727273 0.662878787878787  11.4545454545455 0.984848484848484  11.4545454545455 1.36363636363636  L 11.4545454545455 7.27272727272727  L 16.7727272727273 7.27272727272727  C 17.1136363636364 7.27272727272727  17.4034090909091 7.40530303030303  17.6420454545455 7.67045454545455  Z " fill-rule="nonzero" fill="#ffffff" stroke="none" transform="matrix(1 0 0 1 667 1031 )" />
  </g>
</svg>