<?xml version="1.0" encoding="utf-8"?>
<svg version="1.1" xmlns:xlink="http://www.w3.org/1999/xlink" width="12px" height="12px" viewBox="701 2680  12 12" xmlns="http://www.w3.org/2000/svg">
  <path d="M 707 2680  C 710.36 2680  713 2682.64  713 2686  C 713 2689.36  710.36 2692  707 2692  C 703.64 2692  701 2689.36  701 2686  C 701 2682.64  703.64 2680  707 2680  Z " fill-rule="nonzero" fill="#ffffff" stroke="none" />
  <path d="M 707 2680.5  C 710.08 2680.5  712.5 2682.92  712.5 2686  C 712.5 2689.08  710.08 2691.5  707 2691.5  C 703.92 2691.5  701.5 2689.08  701.5 2686  C 701.5 2682.92  703.92 2680.5  707 2680.5  Z " stroke-width="1" stroke="#f40101" fill="none" />
  <path d="M 707 2689  C 705.32 2689  704 2687.68  704 2686  C 704 2684.32  705.32 2683  707 2683  C 708.68 2683  710 2684.32  710 2686  C 710 2687.68  708.68 2689  707 2689  " fill-rule="nonzero" fill="#f40101" stroke="none" />
</svg>