<?xml version="1.0" encoding="utf-8"?>
<svg version="1.1" xmlns:xlink="http://www.w3.org/1999/xlink" width="12px" height="12px" viewBox="1013 733  12 12" xmlns="http://www.w3.org/2000/svg">
  <path d="M 1019 733  C 1022.36 733  1025 735.64  1025 739  C 1025 742.36  1022.36 745  1019 745  C 1015.64 745  1013 742.36  1013 739  C 1013 735.64  1015.64 733  1019 733  Z " fill-rule="nonzero" fill="#ffffff" stroke="none" />
  <path d="M 1019 733.5  C 1022.08 733.5  1024.5 735.92  1024.5 739  C 1024.5 742.08  1022.08 744.5  1019 744.5  C 1015.92 744.5  1013.5 742.08  1013.5 739  C 1013.5 735.92  1015.92 733.5  1019 733.5  Z " stroke-width="1" stroke="#d7d7d7" fill="none" />
  <path d="M 1019 742  C 1017.32 742  1016 740.68  1016 739  C 1016 737.32  1017.32 736  1019 736  C 1020.68 736  1022 737.32  1022 739  C 1022 740.68  1020.68 742  1019 742  " fill-rule="nonzero" fill="#d7d7d7" stroke="none" />
</svg>