<?xml version="1.0" encoding="utf-8"?>
<svg version="1.1" xmlns:xlink="http://www.w3.org/1999/xlink" width="12px" height="12px" viewBox="553 780  12 12" xmlns="http://www.w3.org/2000/svg">
  <path d="M 559 780  C 562.36 780  565 782.64  565 786  C 565 789.36  562.36 792  559 792  C 555.64 792  553 789.36  553 786  C 553 782.64  555.64 780  559 780  Z " fill-rule="nonzero" fill="#ffffff" stroke="none" />
  <path d="M 559 780.5  C 562.08 780.5  564.5 782.92  564.5 786  C 564.5 789.08  562.08 791.5  559 791.5  C 555.92 791.5  553.5 789.08  553.5 786  C 553.5 782.92  555.92 780.5  559 780.5  Z " stroke-width="1" stroke="#d7d7d7" fill="none" />
  <path d="M 559 789  C 557.32 789  556 787.68  556 786  C 556 784.32  557.32 783  559 783  C 560.68 783  562 784.32  562 786  C 562 787.68  560.68 789  559 789  " fill-rule="nonzero" fill="#d7d7d7" stroke="none" />
</svg>