<?xml version="1.0" encoding="utf-8"?>
<svg version="1.1" xmlns:xlink="http://www.w3.org/1999/xlink" width="12px" height="12px" viewBox="1013 1196  12 12" xmlns="http://www.w3.org/2000/svg">
  <path d="M 1019 1196  C 1022.36 1196  1025 1198.64  1025 1202  C 1025 1205.36  1022.36 1208  1019 1208  C 1015.64 1208  1013 1205.36  1013 1202  C 1013 1198.64  1015.64 1196  1019 1196  Z " fill-rule="nonzero" fill="#ffffff" stroke="none" />
  <path d="M 1019 1196.5  C 1022.08 1196.5  1024.5 1198.92  1024.5 1202  C 1024.5 1205.08  1022.08 1207.5  1019 1207.5  C 1015.92 1207.5  1013.5 1205.08  1013.5 1202  C 1013.5 1198.92  1015.92 1196.5  1019 1196.5  Z " stroke-width="1" stroke="#d7d7d7" fill="none" />
  <path d="M 1019 1205  C 1017.32 1205  1016 1203.68  1016 1202  C 1016 1200.32  1017.32 1199  1019 1199  C 1020.68 1199  1022 1200.32  1022 1202  C 1022 1203.68  1020.68 1205  1019 1205  " fill-rule="nonzero" fill="#d7d7d7" stroke="none" />
</svg>