<?xml version="1.0" encoding="utf-8"?>
<svg version="1.1" xmlns:xlink="http://www.w3.org/1999/xlink" width="12px" height="12px" viewBox="1063 1196  12 12" xmlns="http://www.w3.org/2000/svg">
  <path d="M 1069 1196  C 1072.36 1196  1075 1198.64  1075 1202  C 1075 1205.36  1072.36 1208  1069 1208  C 1065.64 1208  1063 1205.36  1063 1202  C 1063 1198.64  1065.64 1196  1069 1196  Z " fill-rule="nonzero" fill="#ffffff" stroke="none" />
  <path d="M 1069 1196.5  C 1072.08 1196.5  1074.5 1198.92  1074.5 1202  C 1074.5 1205.08  1072.08 1207.5  1069 1207.5  C 1065.92 1207.5  1063.5 1205.08  1063.5 1202  C 1063.5 1198.92  1065.92 1196.5  1069 1196.5  Z " stroke-width="1" stroke="#d7d7d7" fill="none" />
  <path d="M 1069 1205  C 1067.32 1205  1066 1203.68  1066 1202  C 1066 1200.32  1067.32 1199  1069 1199  C 1070.68 1199  1072 1200.32  1072 1202  C 1072 1203.68  1070.68 1205  1069 1205  " fill-rule="nonzero" fill="#d7d7d7" stroke="none" />
</svg>