<?xml version="1.0" encoding="utf-8"?>
<svg version="1.1" xmlns:xlink="http://www.w3.org/1999/xlink" width="815px" height="25px" xmlns="http://www.w3.org/2000/svg">
  <g transform="matrix(1 0 0 1 -498 -1278 )">
    <path d="M 499 1290.5  A 11.5 11.5 0 0 1 510.5 1279 L 1300.5 1279  A 11.5 11.5 0 0 1 1312 1290.5 A 11.5 11.5 0 0 1 1300.5 1302 L 510.5 1302  A 11.5 11.5 0 0 1 499 1290.5 Z " fill-rule="nonzero" fill="#ffffff" stroke="none" />
    <path d="M 498.5 1290.5  A 12 12 0 0 1 510.5 1278.5 L 1300.5 1278.5  A 12 12 0 0 1 1312.5 1290.5 A 12 12 0 0 1 1300.5 1302.5 L 510.5 1302.5  A 12 12 0 0 1 498.5 1290.5 Z " stroke-width="1" stroke-dasharray="9,4" stroke="#1890ff" fill="none" stroke-dashoffset="0.5" />
  </g>
</svg>