<?xml version="1.0" encoding="utf-8"?>
<svg version="1.1" xmlns:xlink="http://www.w3.org/1999/xlink" width="12px" height="12px" viewBox="1739 282  12 12" xmlns="http://www.w3.org/2000/svg">
  <path d="M 1745 282  C 1748.36 282  1751 284.64  1751 288  C 1751 291.36  1748.36 294  1745 294  C 1741.64 294  1739 291.36  1739 288  C 1739 284.64  1741.64 282  1745 282  Z " fill-rule="nonzero" fill="#ffffff" stroke="none" />
  <path d="M 1745 282.5  C 1748.08 282.5  1750.5 284.92  1750.5 288  C 1750.5 291.08  1748.08 293.5  1745 293.5  C 1741.92 293.5  1739.5 291.08  1739.5 288  C 1739.5 284.92  1741.92 282.5  1745 282.5  Z " stroke-width="1" stroke="#d7d7d7" fill="none" />
  <path d="M 1745 291  C 1743.32 291  1742 289.68  1742 288  C 1742 286.32  1743.32 285  1745 285  C 1746.68 285  1748 286.32  1748 288  C 1748 289.68  1746.68 291  1745 291  " fill-rule="nonzero" fill="#d7d7d7" stroke="none" />
</svg>