<?xml version="1.0" encoding="utf-8"?>
<svg version="1.1" xmlns:xlink="http://www.w3.org/1999/xlink" width="640px" height="138px" xmlns="http://www.w3.org/2000/svg">
  <defs>
    <filter x="422px" y="519px" width="640px" height="138px" filterUnits="userSpaceOnUse" id="filter102">
      <feOffset dx="0" dy="0" in="SourceAlpha" result="shadowOffsetInner" />
      <feGaussianBlur stdDeviation="2.5" in="shadowOffsetInner" result="shadowGaussian" />
      <feComposite in2="shadowGaussian" operator="atop" in="SourceAlpha" result="shadowComposite" />
      <feColorMatrix type="matrix" values="0 0 0 0 0  0 0 0 0 0  0 0 0 0 0  0 0 0 0.349019607843137 0  " in="shadowComposite" />
    </filter>
    <g id="widget103">
      <path d="M 428 529  A 4 4 0 0 1 432 525 L 1052 525  A 4 4 0 0 1 1056 529 L 1056 647  A 4 4 0 0 1 1052 651 L 432 651  A 4 4 0 0 1 428 647 L 428 529  Z " fill-rule="nonzero" fill="#ffffff" stroke="none" />
      <path d="M 427.5 529  A 4.5 4.5 0 0 1 432 524.5 L 1052 524.5  A 4.5 4.5 0 0 1 1056.5 529 L 1056.5 647  A 4.5 4.5 0 0 1 1052 651.5 L 432 651.5  A 4.5 4.5 0 0 1 427.5 647 L 427.5 529  Z " stroke-width="1" stroke-dasharray="9,4" stroke="#5e7dea" fill="none" stroke-dashoffset="0.5" />
    </g>
  </defs>
  <g transform="matrix(1 0 0 1 -422 -519 )">
    <use xlink:href="#widget103" filter="url(#filter102)" />
    <use xlink:href="#widget103" />
  </g>
</svg>