<?xml version="1.0" encoding="utf-8"?>
<svg version="1.1" xmlns:xlink="http://www.w3.org/1999/xlink" width="34px" height="24px" xmlns="http://www.w3.org/2000/svg">
  <g transform="matrix(1 0 0 1 -716 -559 )">
    <path d="M 22.4984375 12.9289772727273  C 22.6105902777778 12.8210227272727  22.6666666666667 12.6931818181818  22.6666666666667 12.5454545454545  C 22.6666666666667 12.3863636363636  22.6135416666667 12.2556818181818  22.5072916666667 12.1534090909091  L 16.2739583333333 6.15340909090909  C 16.1677083333333 6.05113636363636  16.0319444444444 6  15.8666666666667 6  C 15.7013888888889 6  15.565625 6.05113636363636  15.459375 6.15340909090909  L 9.24375 12.1363636363636  C 9.12569444444445 12.2727272727273  9.06666666666667 12.4090909090909  9.06666666666667 12.5454545454545  C 9.06666666666667 12.7045454545455  9.11979166666667 12.8352272727273  9.22604166666667 12.9375  C 9.33229166666667 13.0397727272727  9.46805555555556 13.0909090909091  9.63333333333333 13.0909090909091  L 13.6 13.0909090909091  L 13.6 19.0909090909091  C 13.6 19.2386363636364  13.6560763888889 19.3664772727273  13.7682291666667 19.4744318181818  C 13.8803819444444 19.5823863636364  14.0131944444444 19.6363636363636  14.1666666666667 19.6363636363636  L 17.5666666666667 19.6363636363636  C 17.7201388888889 19.6363636363636  17.8529513888889 19.5823863636364  17.9651041666667 19.4744318181818  C 18.0772569444444 19.3664772727273  18.1333333333333 19.2386363636364  18.1333333333333 19.0909090909091  L 18.1333333333333 13.0909090909091  L 22.1 13.0909090909091  C 22.2534722222222 13.0909090909091  22.3862847222222 13.0369318181818  22.4984375 12.9289772727273  Z M 32.5213541666667 13.3892045454545  C 33.5071180555556 14.5767045454545  34 15.9318181818182  34 17.4545454545455  C 34 19.2613636363636  33.3359375 20.8039772727273  32.0078125 22.0823863636364  C 30.6796875 23.3607954545455  29.0770833333333 24  27.2 24  L 7.93333333333333 24  C 5.74930555555556 24  3.88107638888889 23.2528409090909  2.32864583333333 21.7585227272727  C 0.776215277777778 20.2642045454545  0 18.4659090909091  0 16.3636363636364  C 0 14.8863636363636  0.413194444444444 13.5227272727273  1.23958333333333 12.2727272727273  C 2.06597222222222 11.0227272727273  3.17569444444444 10.0852272727273  4.56875 9.46022727272727  C 4.54513888888889 9.11931818181818  4.53333333333333 8.875  4.53333333333333 8.72727272727273  C 4.53333333333333 6.31818181818182  5.41875 4.26136363636364  7.18958333333333 2.55681818181818  C 8.96041666666667 0.852272727272728  11.0972222222222 0  13.6 0  C 15.4416666666667 0  17.1269097222222 0.494318181818183  18.6557291666667 1.48295454545454  C 20.1845486111111 2.47159090909091  21.2972222222222 3.78409090909091  21.99375 5.42045454545454  C 22.8319444444444 4.71590909090909  23.8118055555556 4.36363636363636  24.9333333333333 4.36363636363636  C 26.1847222222222 4.36363636363636  27.253125 4.78977272727273  28.1385416666667 5.64204545454546  C 29.0239583333333 6.49431818181818  29.4666666666667 7.52272727272727  29.4666666666667 8.72727272727273  C 29.4666666666667 9.59090909090909  29.2246527777778 10.375  28.740625 11.0795454545455  C 30.2753472222222 11.4318181818182  31.5355902777778 12.2017045454545  32.5213541666667 13.3892045454545  Z " fill-rule="nonzero" fill="#aaaaaa" stroke="none" fill-opacity="0.819607843137255" transform="matrix(1 0 0 1 716 559 )" />
  </g>
</svg>