<?xml version="1.0" encoding="utf-8"?>
<svg version="1.1" xmlns:xlink="http://www.w3.org/1999/xlink" width="12px" height="12px" viewBox="1608 330  12 12" xmlns="http://www.w3.org/2000/svg">
  <path d="M 1614 330  C 1617.36 330  1620 332.64  1620 336  C 1620 339.36  1617.36 342  1614 342  C 1610.64 342  1608 339.36  1608 336  C 1608 332.64  1610.64 330  1614 330  Z " fill-rule="nonzero" fill="#ffffff" stroke="none" />
  <path d="M 1614 330.5  C 1617.08 330.5  1619.5 332.92  1619.5 336  C 1619.5 339.08  1617.08 341.5  1614 341.5  C 1610.92 341.5  1608.5 339.08  1608.5 336  C 1608.5 332.92  1610.92 330.5  1614 330.5  Z " stroke-width="1" stroke="#d7d7d7" fill="none" />
  <path d="M 1614 339  C 1612.32 339  1611 337.68  1611 336  C 1611 334.32  1612.32 333  1614 333  C 1615.68 333  1617 334.32  1617 336  C 1617 337.68  1615.68 339  1614 339  " fill-rule="nonzero" fill="#d7d7d7" stroke="none" />
</svg>