<?xml version="1.0" encoding="utf-8"?>
<svg version="1.1" xmlns:xlink="http://www.w3.org/1999/xlink" width="210px" height="138px" xmlns="http://www.w3.org/2000/svg">
  <defs>
    <filter x="422px" y="802px" width="210px" height="138px" filterUnits="userSpaceOnUse" id="filter233">
      <feOffset dx="0" dy="0" in="SourceAlpha" result="shadowOffsetInner" />
      <feGaussianBlur stdDeviation="2.5" in="shadowOffsetInner" result="shadowGaussian" />
      <feComposite in2="shadowGaussian" operator="atop" in="SourceAlpha" result="shadowComposite" />
      <feColorMatrix type="matrix" values="0 0 0 0 0  0 0 0 0 0  0 0 0 0 0  0 0 0 0.349019607843137 0  " in="shadowComposite" />
    </filter>
    <g id="widget234">
      <path d="M 428 812  A 4 4 0 0 1 432 808 L 622 808  A 4 4 0 0 1 626 812 L 626 930  A 4 4 0 0 1 622 934 L 432 934  A 4 4 0 0 1 428 930 L 428 812  Z " fill-rule="nonzero" fill="#ffffff" stroke="none" />
      <path d="M 427.5 812  A 4.5 4.5 0 0 1 432 807.5 L 622 807.5  A 4.5 4.5 0 0 1 626.5 812 L 626.5 930  A 4.5 4.5 0 0 1 622 934.5 L 432 934.5  A 4.5 4.5 0 0 1 427.5 930 L 427.5 812  Z " stroke-width="1" stroke-dasharray="9,4" stroke="#5e7dea" fill="none" stroke-dashoffset="0.5" />
    </g>
  </defs>
  <g transform="matrix(1 0 0 1 -422 -802 )">
    <use xlink:href="#widget234" filter="url(#filter233)" />
    <use xlink:href="#widget234" />
  </g>
</svg>