<?xml version="1.0" encoding="utf-8"?>
<svg version="1.1" xmlns:xlink="http://www.w3.org/1999/xlink" width="12px" height="12px" viewBox="477 998  12 12" xmlns="http://www.w3.org/2000/svg">
  <path d="M 483 998  C 486.36 998  489 1000.64  489 1004  C 489 1007.36  486.36 1010  483 1010  C 479.64 1010  477 1007.36  477 1004  C 477 1000.64  479.64 998  483 998  Z " fill-rule="nonzero" fill="#ffffff" stroke="none" />
  <path d="M 483 998.5  C 486.08 998.5  488.5 1000.92  488.5 1004  C 488.5 1007.08  486.08 1009.5  483 1009.5  C 479.92 1009.5  477.5 1007.08  477.5 1004  C 477.5 1000.92  479.92 998.5  483 998.5  Z " stroke-width="1" stroke="#d7d7d7" fill="none" />
  <path d="M 483 1007  C 481.32 1007  480 1005.68  480 1004  C 480 1002.32  481.32 1001  483 1001  C 484.68 1001  486 1002.32  486 1004  C 486 1005.68  484.68 1007  483 1007  " fill-rule="nonzero" fill="#d7d7d7" stroke="none" />
</svg>