<?xml version="1.0" encoding="utf-8"?>
<svg version="1.1" xmlns:xlink="http://www.w3.org/1999/xlink" width="12px" height="12px" viewBox="2229 327  12 12" xmlns="http://www.w3.org/2000/svg">
  <path d="M 2235 327  C 2238.36 327  2241 329.64  2241 333  C 2241 336.36  2238.36 339  2235 339  C 2231.64 339  2229 336.36  2229 333  C 2229 329.64  2231.64 327  2235 327  Z " fill-rule="nonzero" fill="#ffffff" stroke="none" />
  <path d="M 2235 327.5  C 2238.08 327.5  2240.5 329.92  2240.5 333  C 2240.5 336.08  2238.08 338.5  2235 338.5  C 2231.92 338.5  2229.5 336.08  2229.5 333  C 2229.5 329.92  2231.92 327.5  2235 327.5  Z " stroke-width="1" stroke="#d7d7d7" fill="none" />
  <path d="M 2235 336  C 2233.32 336  2232 334.68  2232 333  C 2232 331.32  2233.32 330  2235 330  C 2236.68 330  2238 331.32  2238 333  C 2238 334.68  2236.68 336  2235 336  " fill-rule="nonzero" fill="#d7d7d7" stroke="none" />
</svg>